<mxfile host="app.diagrams.net" agent="Mozilla/5.0 (Windows NT 10.0; Win64; x64) AppleWebKit/537.36 (KHTML, like Gecko) Chrome/130.0.0.0 Safari/537.36 Edg/130.0.0.0" version="24.8.4">
  <diagram name="Страница — 1" id="hj7CFw5oaHOUqpzhWUgJ">
    <mxGraphModel dx="2876" dy="1663" grid="1" gridSize="10" guides="1" tooltips="1" connect="1" arrows="1" fold="1" page="1" pageScale="1" pageWidth="827" pageHeight="583" math="0" shadow="0">
      <root>
        <mxCell id="0" />
        <mxCell id="1" parent="0" />
        <mxCell id="FGlAUtilV3WjWaG7oi7A-20" style="edgeStyle=orthogonalEdgeStyle;rounded=0;orthogonalLoop=1;jettySize=auto;html=1;entryX=0;entryY=0.5;entryDx=0;entryDy=0;" edge="1" parent="1" source="tyJL5RVhGpzJcOc0of-g-1" target="tyJL5RVhGpzJcOc0of-g-3">
          <mxGeometry relative="1" as="geometry">
            <Array as="points">
              <mxPoint x="-30" y="70" />
              <mxPoint x="-30" y="509" />
            </Array>
          </mxGeometry>
        </mxCell>
        <mxCell id="FGlAUtilV3WjWaG7oi7A-32" style="edgeStyle=orthogonalEdgeStyle;rounded=0;orthogonalLoop=1;jettySize=auto;html=1;entryX=1;entryY=0.5;entryDx=0;entryDy=0;" edge="1" parent="1" source="tyJL5RVhGpzJcOc0of-g-1" target="tyJL5RVhGpzJcOc0of-g-17">
          <mxGeometry relative="1" as="geometry">
            <Array as="points">
              <mxPoint x="180" y="70" />
              <mxPoint x="180" y="365" />
            </Array>
          </mxGeometry>
        </mxCell>
        <mxCell id="tyJL5RVhGpzJcOc0of-g-1" value="Пользователь" style="rounded=0;whiteSpace=wrap;html=1;" parent="1" vertex="1">
          <mxGeometry x="30" y="40" width="120" height="60" as="geometry" />
        </mxCell>
        <mxCell id="tyJL5RVhGpzJcOc0of-g-3" value="Тренды" style="rounded=0;whiteSpace=wrap;html=1;" parent="1" vertex="1">
          <mxGeometry x="30" y="478.5" width="120" height="60" as="geometry" />
        </mxCell>
        <mxCell id="tyJL5RVhGpzJcOc0of-g-17" value="История прослушиваний" style="rounded=0;whiteSpace=wrap;html=1;" parent="1" vertex="1">
          <mxGeometry x="30" y="335.5" width="120" height="60" as="geometry" />
        </mxCell>
        <mxCell id="tyJL5RVhGpzJcOc0of-g-39" value="Атрибут" style="rounded=0;whiteSpace=wrap;html=1;fontStyle=1" parent="1" vertex="1">
          <mxGeometry x="240" y="70" width="210" height="30" as="geometry" />
        </mxCell>
        <mxCell id="tyJL5RVhGpzJcOc0of-g-40" value="Описание" style="rounded=0;whiteSpace=wrap;html=1;fontStyle=1" parent="1" vertex="1">
          <mxGeometry x="450" y="70" width="390" height="30" as="geometry" />
        </mxCell>
        <mxCell id="tyJL5RVhGpzJcOc0of-g-45" value="Имя" style="rounded=0;whiteSpace=wrap;html=1;" parent="1" vertex="1">
          <mxGeometry x="240" y="100" width="210" height="30" as="geometry" />
        </mxCell>
        <mxCell id="tyJL5RVhGpzJcOc0of-g-46" value="Ник пользователя" style="rounded=0;whiteSpace=wrap;html=1;" parent="1" vertex="1">
          <mxGeometry x="450" y="100" width="390" height="30" as="geometry" />
        </mxCell>
        <mxCell id="tyJL5RVhGpzJcOc0of-g-48" value="Почта" style="rounded=0;whiteSpace=wrap;html=1;" parent="1" vertex="1">
          <mxGeometry x="240" y="130" width="210" height="30" as="geometry" />
        </mxCell>
        <mxCell id="tyJL5RVhGpzJcOc0of-g-49" value="Адрес электронной почты" style="rounded=0;whiteSpace=wrap;html=1;" parent="1" vertex="1">
          <mxGeometry x="450" y="130" width="390" height="30" as="geometry" />
        </mxCell>
        <mxCell id="tyJL5RVhGpzJcOc0of-g-131" value="&lt;font face=&quot;-apple-system, BlinkMacSystemFont, Segoe UI, Noto Sans, Helvetica, Arial, sans-serif, Apple Color Emoji, Segoe UI Emoji&quot; color=&quot;#1f2328&quot;&gt;&lt;span style=&quot;font-size: 16px; background-color: rgb(255, 255, 255);&quot;&gt;Я как пользователь spotify хочу иметь возможность просматривать, как изменялся мой собственный топ-10 треков месяца в течение определенного периода, для того чтобы смотреть динамику изменений моих вкусов&lt;/span&gt;&lt;/font&gt;" style="text;whiteSpace=wrap;html=1;" parent="1" vertex="1">
          <mxGeometry x="30" y="-65" width="750" height="95" as="geometry" />
        </mxCell>
        <mxCell id="tyJL5RVhGpzJcOc0of-g-133" value="&lt;b&gt;&lt;font style=&quot;font-size: 14px;&quot;&gt;Объект Пользователь&lt;/font&gt;&lt;/b&gt;" style="text;html=1;align=center;verticalAlign=middle;whiteSpace=wrap;rounded=0;" parent="1" vertex="1">
          <mxGeometry x="250" y="30" width="190" height="30" as="geometry" />
        </mxCell>
        <mxCell id="tyJL5RVhGpzJcOc0of-g-134" value="&lt;b style=&quot;text-align: center;&quot;&gt;&lt;font style=&quot;font-size: 14px;&quot;&gt;Объект Трек&lt;/font&gt;&lt;/b&gt;" style="text;whiteSpace=wrap;html=1;" parent="1" vertex="1">
          <mxGeometry x="250" y="170" width="270" height="30" as="geometry" />
        </mxCell>
        <mxCell id="tyJL5RVhGpzJcOc0of-g-135" value="Атрибут" style="rounded=0;whiteSpace=wrap;html=1;fontStyle=1" parent="1" vertex="1">
          <mxGeometry x="240" y="207" width="210" height="30" as="geometry" />
        </mxCell>
        <mxCell id="tyJL5RVhGpzJcOc0of-g-136" value="Описание" style="rounded=0;whiteSpace=wrap;html=1;fontStyle=1" parent="1" vertex="1">
          <mxGeometry x="450" y="207" width="390" height="30" as="geometry" />
        </mxCell>
        <mxCell id="tyJL5RVhGpzJcOc0of-g-143" value="Атрибут" style="rounded=0;whiteSpace=wrap;html=1;fontStyle=1" parent="1" vertex="1">
          <mxGeometry x="240" y="410" width="210" height="30" as="geometry" />
        </mxCell>
        <mxCell id="tyJL5RVhGpzJcOc0of-g-144" value="Описание" style="rounded=0;whiteSpace=wrap;html=1;fontStyle=1" parent="1" vertex="1">
          <mxGeometry x="450" y="410" width="390" height="30" as="geometry" />
        </mxCell>
        <mxCell id="tyJL5RVhGpzJcOc0of-g-147" value="&lt;span style=&quot;text-align: left;&quot;&gt;Трек&lt;/span&gt;" style="rounded=0;whiteSpace=wrap;html=1;" parent="1" vertex="1">
          <mxGeometry x="240" y="440" width="210" height="30" as="geometry" />
        </mxCell>
        <mxCell id="tyJL5RVhGpzJcOc0of-g-148" value="&lt;span style=&quot;text-align: left;&quot;&gt;Дата и время&lt;/span&gt;" style="rounded=0;whiteSpace=wrap;html=1;" parent="1" vertex="1">
          <mxGeometry x="240" y="470" width="210" height="30" as="geometry" />
        </mxCell>
        <mxCell id="tyJL5RVhGpzJcOc0of-g-149" value="&lt;span style=&quot;text-align: left;&quot;&gt;Пользователь&lt;/span&gt;" style="rounded=0;whiteSpace=wrap;html=1;" parent="1" vertex="1">
          <mxGeometry x="240" y="500" width="210" height="30" as="geometry" />
        </mxCell>
        <mxCell id="tyJL5RVhGpzJcOc0of-g-152" value="чч:мм дд/мм/гггг" style="rounded=0;whiteSpace=wrap;html=1;" parent="1" vertex="1">
          <mxGeometry x="450" y="470" width="390" height="30" as="geometry" />
        </mxCell>
        <mxCell id="tyJL5RVhGpzJcOc0of-g-154" value="Ссылка на слушателя трека" style="rounded=0;whiteSpace=wrap;html=1;" parent="1" vertex="1">
          <mxGeometry x="450" y="500" width="390" height="30" as="geometry" />
        </mxCell>
        <mxCell id="tyJL5RVhGpzJcOc0of-g-158" value="&lt;b&gt;&lt;font style=&quot;font-size: 14px;&quot;&gt;Объект История прослушивания&lt;/font&gt;&lt;/b&gt;" style="text;html=1;align=center;verticalAlign=middle;whiteSpace=wrap;rounded=0;" parent="1" vertex="1">
          <mxGeometry x="220" y="370" width="299" height="30" as="geometry" />
        </mxCell>
        <mxCell id="tyJL5RVhGpzJcOc0of-g-159" value="Атрибут" style="rounded=0;whiteSpace=wrap;html=1;fontStyle=1" parent="1" vertex="1">
          <mxGeometry x="240" y="573" width="210" height="30" as="geometry" />
        </mxCell>
        <mxCell id="tyJL5RVhGpzJcOc0of-g-160" value="Описание" style="rounded=0;whiteSpace=wrap;html=1;fontStyle=1" parent="1" vertex="1">
          <mxGeometry x="450" y="573" width="390" height="30" as="geometry" />
        </mxCell>
        <mxCell id="tyJL5RVhGpzJcOc0of-g-163" value="Трек 1" style="rounded=0;whiteSpace=wrap;html=1;" parent="1" vertex="1">
          <mxGeometry x="240" y="603" width="210" height="40" as="geometry" />
        </mxCell>
        <mxCell id="tyJL5RVhGpzJcOc0of-g-164" value="Трек 20" style="rounded=0;whiteSpace=wrap;html=1;" parent="1" vertex="1">
          <mxGeometry x="240" y="683" width="210" height="40" as="geometry" />
        </mxCell>
        <mxCell id="tyJL5RVhGpzJcOc0of-g-166" value="Ссылка на трек" style="rounded=0;whiteSpace=wrap;html=1;" parent="1" vertex="1">
          <mxGeometry x="450" y="603" width="390" height="40" as="geometry" />
        </mxCell>
        <mxCell id="tyJL5RVhGpzJcOc0of-g-167" value="Ссылка на трек" style="rounded=0;whiteSpace=wrap;html=1;" parent="1" vertex="1">
          <mxGeometry x="450" y="683" width="390" height="40" as="geometry" />
        </mxCell>
        <mxCell id="tyJL5RVhGpzJcOc0of-g-169" value="&lt;b&gt;&lt;font style=&quot;font-size: 14px;&quot;&gt;Объект тренды&lt;/font&gt;&lt;/b&gt;" style="text;html=1;align=center;verticalAlign=middle;whiteSpace=wrap;rounded=0;" parent="1" vertex="1">
          <mxGeometry x="230" y="543" width="230" height="30" as="geometry" />
        </mxCell>
        <mxCell id="tyJL5RVhGpzJcOc0of-g-171" value="&lt;span style=&quot;text-align: left;&quot;&gt;Название трека&lt;/span&gt;" style="rounded=0;whiteSpace=wrap;html=1;" parent="1" vertex="1">
          <mxGeometry x="240" y="237" width="210" height="40" as="geometry" />
        </mxCell>
        <mxCell id="tyJL5RVhGpzJcOc0of-g-172" value="Название трека" style="rounded=0;whiteSpace=wrap;html=1;" parent="1" vertex="1">
          <mxGeometry x="450" y="237" width="390" height="40" as="geometry" />
        </mxCell>
        <mxCell id="tyJL5RVhGpzJcOc0of-g-173" value="&lt;div style=&quot;text-align: left;&quot;&gt;&lt;span style=&quot;background-color: initial;&quot;&gt;Название альбома&lt;/span&gt;&lt;/div&gt;" style="rounded=0;whiteSpace=wrap;html=1;" parent="1" vertex="1">
          <mxGeometry x="240" y="277" width="210" height="40" as="geometry" />
        </mxCell>
        <mxCell id="tyJL5RVhGpzJcOc0of-g-174" value="Название альбома" style="rounded=0;whiteSpace=wrap;html=1;align=center;spacingLeft=7;" parent="1" vertex="1">
          <mxGeometry x="450" y="277" width="390" height="40" as="geometry" />
        </mxCell>
        <mxCell id="tyJL5RVhGpzJcOc0of-g-175" value="Ссылка на трек" style="rounded=0;whiteSpace=wrap;html=1;" parent="1" vertex="1">
          <mxGeometry x="450" y="440" width="390" height="30" as="geometry" />
        </mxCell>
        <mxCell id="lhtOHuPfnoNtyBr-FOa0-3" style="edgeStyle=orthogonalEdgeStyle;rounded=0;orthogonalLoop=1;jettySize=auto;html=1;exitX=0.5;exitY=1;exitDx=0;exitDy=0;" parent="1" edge="1">
          <mxGeometry relative="1" as="geometry">
            <mxPoint x="90.5" y="395.5" as="sourcePoint" />
            <mxPoint x="90" y="478.5" as="targetPoint" />
            <Array as="points">
              <mxPoint x="91" y="471.5" />
              <mxPoint x="90" y="471.5" />
            </Array>
          </mxGeometry>
        </mxCell>
        <mxCell id="lhtOHuPfnoNtyBr-FOa0-4" value="Формирует" style="edgeLabel;html=1;align=center;verticalAlign=middle;resizable=0;points=[];" parent="lhtOHuPfnoNtyBr-FOa0-3" vertex="1" connectable="0">
          <mxGeometry x="-0.1545" y="1" relative="1" as="geometry">
            <mxPoint x="39" y="-143" as="offset" />
          </mxGeometry>
        </mxCell>
        <mxCell id="FGlAUtilV3WjWaG7oi7A-22" style="edgeStyle=orthogonalEdgeStyle;rounded=0;orthogonalLoop=1;jettySize=auto;html=1;entryX=0;entryY=0.25;entryDx=0;entryDy=0;" edge="1" parent="1" source="FGlAUtilV3WjWaG7oi7A-2" target="tyJL5RVhGpzJcOc0of-g-3">
          <mxGeometry relative="1" as="geometry">
            <Array as="points">
              <mxPoint x="10" y="215" />
              <mxPoint x="10" y="494" />
            </Array>
          </mxGeometry>
        </mxCell>
        <mxCell id="FGlAUtilV3WjWaG7oi7A-2" value="Трек" style="rounded=0;whiteSpace=wrap;html=1;" vertex="1" parent="1">
          <mxGeometry x="30" y="185" width="120" height="60" as="geometry" />
        </mxCell>
        <mxCell id="FGlAUtilV3WjWaG7oi7A-12" value="Формирует" style="edgeLabel;html=1;align=center;verticalAlign=middle;resizable=0;points=[];" vertex="1" connectable="0" parent="1">
          <mxGeometry x="90" y="428.5041379310344" as="geometry" />
        </mxCell>
        <mxCell id="FGlAUtilV3WjWaG7oi7A-13" style="edgeStyle=orthogonalEdgeStyle;rounded=0;orthogonalLoop=1;jettySize=auto;html=1;exitX=0.5;exitY=1;exitDx=0;exitDy=0;" edge="1" parent="1">
          <mxGeometry relative="1" as="geometry">
            <mxPoint x="89.93" y="100" as="sourcePoint" />
            <mxPoint x="89.43" y="183" as="targetPoint" />
            <Array as="points">
              <mxPoint x="90.43" y="176" />
              <mxPoint x="89.43" y="176" />
            </Array>
          </mxGeometry>
        </mxCell>
        <mxCell id="FGlAUtilV3WjWaG7oi7A-15" value="Слушает" style="edgeLabel;html=1;align=center;verticalAlign=middle;resizable=0;points=[];" vertex="1" connectable="0" parent="1">
          <mxGeometry x="90" y="145" as="geometry" />
        </mxCell>
        <mxCell id="FGlAUtilV3WjWaG7oi7A-16" style="edgeStyle=orthogonalEdgeStyle;rounded=0;orthogonalLoop=1;jettySize=auto;html=1;exitX=0.5;exitY=1;exitDx=0;exitDy=0;entryX=0.5;entryY=0;entryDx=0;entryDy=0;" edge="1" parent="1" target="tyJL5RVhGpzJcOc0of-g-17">
          <mxGeometry relative="1" as="geometry">
            <mxPoint x="90.16000000000001" y="245" as="sourcePoint" />
            <mxPoint x="89.66000000000001" y="328" as="targetPoint" />
            <Array as="points">
              <mxPoint x="90" y="321" />
            </Array>
          </mxGeometry>
        </mxCell>
        <mxCell id="FGlAUtilV3WjWaG7oi7A-21" value="Формирует" style="edgeLabel;html=1;align=center;verticalAlign=middle;resizable=0;points=[];" vertex="1" connectable="0" parent="1">
          <mxGeometry x="-70" y="207" as="geometry" />
        </mxCell>
        <mxCell id="FGlAUtilV3WjWaG7oi7A-23" value="Входит" style="edgeLabel;html=1;align=center;verticalAlign=middle;resizable=0;points=[];" vertex="1" connectable="0" parent="1">
          <mxGeometry x="110" y="292" as="geometry">
            <mxPoint x="-85" y="-14" as="offset" />
          </mxGeometry>
        </mxCell>
        <mxCell id="FGlAUtilV3WjWaG7oi7A-24" value="..." style="rounded=0;whiteSpace=wrap;html=1;" vertex="1" parent="1">
          <mxGeometry x="240" y="643" width="210" height="40" as="geometry" />
        </mxCell>
        <mxCell id="FGlAUtilV3WjWaG7oi7A-25" value="...." style="rounded=0;whiteSpace=wrap;html=1;" vertex="1" parent="1">
          <mxGeometry x="450" y="643" width="390" height="40" as="geometry" />
        </mxCell>
        <mxCell id="FGlAUtilV3WjWaG7oi7A-26" value="&lt;div style=&quot;text-align: left;&quot;&gt;&lt;span style=&quot;background-color: initial;&quot;&gt;Исполнитель&lt;/span&gt;&lt;/div&gt;" style="rounded=0;whiteSpace=wrap;html=1;" vertex="1" parent="1">
          <mxGeometry x="240" y="315.5" width="210" height="40" as="geometry" />
        </mxCell>
        <mxCell id="FGlAUtilV3WjWaG7oi7A-27" value="Имя артиста" style="rounded=0;whiteSpace=wrap;html=1;align=center;spacingLeft=7;" vertex="1" parent="1">
          <mxGeometry x="450" y="315.5" width="390" height="40" as="geometry" />
        </mxCell>
        <mxCell id="FGlAUtilV3WjWaG7oi7A-28" value="Месяц" style="rounded=0;whiteSpace=wrap;html=1;" vertex="1" parent="1">
          <mxGeometry x="240" y="723" width="210" height="40" as="geometry" />
        </mxCell>
        <mxCell id="FGlAUtilV3WjWaG7oi7A-29" value="Топ в соответствие с месяцем&amp;nbsp;" style="rounded=0;whiteSpace=wrap;html=1;" vertex="1" parent="1">
          <mxGeometry x="450" y="723" width="390" height="40" as="geometry" />
        </mxCell>
        <mxCell id="FGlAUtilV3WjWaG7oi7A-30" value="Пользователь" style="rounded=0;whiteSpace=wrap;html=1;" vertex="1" parent="1">
          <mxGeometry x="240" y="763" width="210" height="40" as="geometry" />
        </mxCell>
        <mxCell id="FGlAUtilV3WjWaG7oi7A-31" value="Ссылка на пользователся" style="rounded=0;whiteSpace=wrap;html=1;" vertex="1" parent="1">
          <mxGeometry x="450" y="763" width="390" height="40" as="geometry" />
        </mxCell>
        <mxCell id="FGlAUtilV3WjWaG7oi7A-33" value="Формирует" style="edgeLabel;html=1;align=center;verticalAlign=middle;resizable=0;points=[];" vertex="1" connectable="0" parent="1">
          <mxGeometry x="190" y="130" as="geometry" />
        </mxCell>
      </root>
    </mxGraphModel>
  </diagram>
</mxfile>
